<?xml version="1.0" encoding="UTF-8" standalone="no"?>
<!-- Generator: Adobe Illustrator 16.0.0, SVG Export Plug-In . SVG Version: 6.00 Build 0)  -->

<svg
   version="1.1"
   id="Layer_1"
   x="0px"
   y="0px"
   width="97px"
   height="97px"
   viewBox="0 0 97 97"
   enable-background="new 0 0 97 97"
   xml:space="preserve"
   sodipodi:docname="icon.svg"
   inkscape:version="1.1 (c4e8f9ed74, 2021-05-24)"
   inkscape:export-filename="icon.png"
   inkscape:export-xdpi="133.73"
   inkscape:export-ydpi="133.73"
   xmlns:inkscape="http://www.inkscape.org/namespaces/inkscape"
   xmlns:sodipodi="http://sodipodi.sourceforge.net/DTD/sodipodi-0.dtd"
   xmlns="http://www.w3.org/2000/svg"
   xmlns:svg="http://www.w3.org/2000/svg"><defs
   id="defs9" /><sodipodi:namedview
   id="namedview7"
   pagecolor="#ffffff"
   bordercolor="#666666"
   borderopacity="1.0"
   inkscape:pageshadow="2"
   inkscape:pageopacity="0.0"
   inkscape:pagecheckerboard="0"
   showgrid="false"
   inkscape:snap-global="true"
   showguides="true"
   inkscape:guide-bbox="true"
   inkscape:snap-bbox="true"
   inkscape:bbox-paths="true"
   inkscape:bbox-nodes="true"
   inkscape:zoom="3.076279"
   inkscape:cx="-52.010887"
   inkscape:cy="82.079682"
   inkscape:window-width="1858"
   inkscape:window-height="1047"
   inkscape:window-x="0"
   inkscape:window-y="0"
   inkscape:window-maximized="1"
   inkscape:current-layer="Layer_1" />
<g
   id="g2551"
   transform="translate(-64.469263,-4.7682367)"
   style="fill:#ffffff">
	<path
   fill="#f05133"
   d="m 157.17926,49.176237 -40.119,-40.1170003 c -2.31,-2.311 -6.057,-2.311 -8.369,0 L 68.757263,48.990237 c -2.311,2.313 -2.311,6.06 0,8.371 l 40.120997,40.118 c 2.31,2.311 6.056,2.311 8.369,0 l 39.932,-39.932 c 2.311,-2.311 2.311,-6.06 0,-8.371 z"
   id="path2549"
   sodipodi:nodetypes="cccccccsc"
   style="fill:#ffffff" />
</g><g
   id="g4">
	<path
   fill="#F05133"
   d="M92.71,44.408L52.591,4.291c-2.31-2.311-6.057-2.311-8.369,0l-8.33,8.332L46.459,23.19   c2.456-0.83,5.272-0.273,7.229,1.685c1.969,1.97,2.521,4.81,1.67,7.275l10.186,10.185c2.465-0.85,5.307-0.3,7.275,1.671   c2.75,2.75,2.75,7.206,0,9.958c-2.752,2.751-7.208,2.751-9.961,0c-2.068-2.07-2.58-5.11-1.531-7.658l-9.5-9.499v24.997   c0.67,0.332,1.303,0.774,1.861,1.332c2.75,2.75,2.75,7.206,0,9.959c-2.75,2.749-7.209,2.749-9.957,0c-2.75-2.754-2.75-7.21,0-9.959   c0.68-0.679,1.467-1.193,2.307-1.537V36.369c-0.84-0.344-1.625-0.853-2.307-1.537c-2.083-2.082-2.584-5.14-1.516-7.698   L31.798,16.715L4.288,44.222c-2.311,2.313-2.311,6.06,0,8.371l40.121,40.118c2.31,2.311,6.056,2.311,8.369,0L92.71,52.779   C95.021,50.468,95.021,46.719,92.71,44.408z"
   id="path2" />
</g>
<g
   transform="matrix(1.9841679,0,0,1.9841679,-594.56092,-867.41307)"
   id="g3485"
   style="fill:#cccccc"><path
     style="fill:#cccccc;fill-opacity:1;fill-rule:evenodd;stroke:#ffffff;stroke-width:1px;stroke-linecap:butt;stroke-linejoin:miter;stroke-opacity:1"
     d="M -21.086934,-1.0374472 -12.2481,8.559002 -4.6719555,2.2455486 -7.0710678,-1.6687926 -12.626907,-3.3102905 Z"
     id="path3483"
     transform="translate(346.502,472.745)" /><path
     sodipodi:nodetypes="csc"
     style="fill:#cccccc;fill-opacity:1;fill-rule:evenodd;stroke:#000000;stroke-width:1px;stroke-linecap:butt;stroke-linejoin:miter;stroke-opacity:1"
     d="m 341.19851,474.23287 c -0.25254,-11.11167 2.48372,-16.16244 -0.37881,-16.16244 -3.78807,0 -3.53553,13.25826 -3.53553,13.25826"
     id="path3292" /><g
     id="g3304"
     style="fill:#cccccc;fill-opacity:1"
     transform="translate(30.9359,-0.883883)"><g
       id="g3308"
       style="fill:#cccccc;fill-opacity:1"><path
         style="fill:#cccccc;fill-opacity:1;fill-rule:evenodd;stroke:#000000;stroke-width:1px;stroke-linecap:butt;stroke-linejoin:miter;stroke-opacity:1"
         d="m -43.565515,7.9138644 c 0,0 3.296212,-4.9621163 6.152602,-4.979537 2.020909,-0.268048 2.803022,-2.72795334 3.529434,-4.6089898 0.363206,-0.9405182 0.712487,-1.7363192 1.195728,-2.0410622 0.483242,-0.304743 1.946264,-0.2788574 1.999497,0.905286 -0.413521,3.58660992 -0.148483,15.6403696 -14.894647,15.2041516 -5.239794,-0.617028 -6.891259,-4.2325887 -7.002424,-6.5715932 -0.226267,-4.760838 -0.49495,-16.4994178 2.557371,-17.4511058 3.013909,-0.939712 1.002825,2.6803431 0.70852,11.57476295"
         id="path3290"
         sodipodi:nodetypes="ccssccszc"
         transform="translate(346.502,472.745)" /></g></g><path
     sodipodi:nodetypes="csc"
     style="fill:#cccccc;fill-opacity:1;fill-rule:evenodd;stroke:#000000;stroke-width:0.927809px;stroke-linecap:butt;stroke-linejoin:miter;stroke-opacity:1"
     d="m 331.6564,471.76268 c 0.0673,-9.38843 3.61438,-15.26161 0.36896,-15.26161 -3.24542,0 -3.31993,14.93362 -3.31993,14.93362"
     id="path3298" /><path
     sodipodi:nodetypes="cscc"
     style="fill:#cccccc;fill-opacity:1;fill-rule:evenodd;stroke:#000000;stroke-width:1px;stroke-linecap:butt;stroke-linejoin:miter;stroke-opacity:1"
     d="m 336.60223,471.12479 c -0.115,-9.63478 3.46676,-15.62692 -0.32131,-15.62692 -3.78808,0 -3.97184,15.87946 -3.97184,15.87946 v 0"
     id="path3300" /><path
     style="fill:#cccccc;fill-opacity:1;fill-rule:evenodd;stroke:#000000;stroke-width:1px;stroke-linecap:butt;stroke-linejoin:miter;stroke-opacity:1"
     d="m 338.92567,471.83376 c 0,0 -3.4032,-0.68269 -6.06092,-0.50507 -3.17486,0.21217 -5.3033,0.3788 -6.31345,1.38896"
     id="path3302" /></g></svg>
